<?xml version="1.0" standalone="no"?>
<!DOCTYPE svg PUBLIC "-//W3C//DTD SVG 20010904//EN"
 "http://www.w3.org/TR/2001/REC-SVG-20010904/DTD/svg10.dtd">
<svg version="1.0" xmlns="http://www.w3.org/2000/svg"
 width="100.000000pt" height="100.000000pt" viewBox="0 0 100.000000 100.000000"
 preserveAspectRatio="xMidYMid meet">

<g transform="translate(0.000000,100.000000) scale(0.100000,-0.100000)"
fill="#000000" stroke="none">
<path d="M110 662 c0 -34 -3 -39 -32 -47 -41 -13 -78 -66 -78 -114 0 -60 28
-91 130 -145 l93 -49 32 17 c18 10 38 28 44 39 11 21 17 22 146 19 l135 -3 0
-29 c0 -23 6 -30 31 -39 77 -27 159 -3 186 53 13 29 19 33 34 25 25 -13 64
-11 105 6 80 33 84 169 6 209 -38 19 -267 16 -299 -4 -20 -13 -26 -13 -50 2
-22 13 -53 16 -151 14 l-122 -1 0 43 0 42 -105 0 -105 0 0 -38z m88 -119 l-3
-118 -52 -3 c-45 -3 -56 1 -78 22 -49 49 -17 134 52 139 31 2 33 4 33 40 0 33
3 37 25 37 l26 0 -3 -117z m82 92 c0 -20 -5 -25 -25 -25 -20 0 -25 5 -25 25 0
20 5 25 25 25 20 0 25 -5 25 -25z m-2 -151 c-3 -86 -5 -98 -26 -115 -19 -14
-28 -16 -43 -8 -19 10 -19 10 1 36 16 21 20 40 20 104 0 78 0 79 26 79 l26 0
-4 -96z m137 80 c12 -12 15 -32 13 -78 l-3 -61 -42 -3 c-53 -4 -83 11 -83 42
0 28 15 42 53 51 40 10 34 29 -8 22 -30 -5 -35 -3 -35 13 0 31 78 41 105 14z
m156 6 c16 -9 19 -22 19 -80 0 -63 -2 -70 -20 -70 -16 0 -19 8 -22 58 -3 50
-6 57 -25 60 -22 3 -23 0 -23 -57 0 -58 -1 -61 -25 -61 -24 0 -25 2 -25 74 0
63 3 75 18 79 32 9 83 7 103 -3z m224 1 c3 -5 -2 -16 -10 -24 -10 -11 -15 -36
-15 -84 0 -81 -15 -109 -65 -119 -50 -9 -85 2 -85 27 0 18 4 20 30 14 37 -8
70 2 70 21 0 9 -10 14 -27 14 -35 0 -73 36 -73 70 0 31 25 68 54 80 28 12 113
12 121 1z m140 -16 c50 -49 15 -135 -55 -135 -41 0 -80 39 -80 80 0 41 39 80
80 80 19 0 40 -9 55 -25z"/>
<path d="M118 543 c-41 -10 -29 -83 13 -83 15 0 19 8 19 39 0 43 -5 50 -32 44z"/>
<path d="M351 476 c-8 -10 -9 -16 -1 -21 13 -8 30 3 30 21 0 18 -14 18 -29 0z"/>
<path d="M682 528 c-16 -16 -15 -43 3 -58 25 -21 42 -6 37 34 -4 37 -19 45
-40 24z"/>
<path d="M855 520 c-9 -29 4 -60 25 -60 21 0 34 31 25 60 -3 11 -15 20 -25 20
-10 0 -22 -9 -25 -20z"/>
</g>
</svg>
